<?xml version="1.0" encoding="utf-8"?>
<!-- Generator: Adobe Illustrator 19.1.0, SVG Export Plug-In . SVG Version: 6.00 Build 0)  -->
<svg version="1.1" id="Layer_1" xmlns="http://www.w3.org/2000/svg" xmlns:xlink="http://www.w3.org/1999/xlink" x="0px" y="0px"
	 viewBox="0 0 50 50" style="enable-background:new 0 0 50 50;" xml:space="preserve">
<style type="text/css">
	.st0{fill:#F9F4EC;}
</style>
<g>
	<g>
		<path class="st0" d="M27.3,9.1c3.2,0.1,8.6-0.1,14,0.7c3.4,0.5,5.3,2.3,5.6,5.7c0.7,6.4,0.9,12.8,0,19.1c-0.5,3.2-2.2,5-5.5,5.4
			c-6.9,0.9-13.9,0.9-20.9,0.7c-3.9-0.1-7.8-0.1-11.6-0.7c-3.8-0.6-5.3-2.3-5.8-6.1C2.2,28.2,2.4,22.3,3,16.5c0.4-4.5,2.4-6.5,7-6.8
			C15,9.3,20,9.1,27.3,9.1z M20.5,31.6c3.9-2.3,7.6-4.4,11.4-6.7c-4-2.3-7.6-4.4-11.4-6.6C20.5,22.9,20.5,27.1,20.5,31.6z"/>
	</g>
</g>
</svg>
