<?xml version="1.0" encoding="utf-8"?>
<!-- Generator: Adobe Illustrator 19.1.0, SVG Export Plug-In . SVG Version: 6.00 Build 0)  -->
<svg version="1.1" id="Layer_1" xmlns="http://www.w3.org/2000/svg" xmlns:xlink="http://www.w3.org/1999/xlink" x="0px" y="0px"
	 viewBox="0 0 50 50" style="enable-background:new 0 0 50 50;" xml:space="preserve">
<style type="text/css">
	.st0{fill:#F9F4EC;}
</style>
<g>
	<g>
		<path class="st0" d="M5.9,26.6c0-1,0-2,0-3C6,23.6,6,23.5,6,23.5c0-0.2,0-0.3,0-0.5c0.1-1.2,0.4-2.4,0.7-3.6c0.8-2.6,2.1-5,4-7
			c1.6-1.8,3.5-3.3,5.7-4.4c1.1-0.6,2.2-1,3.4-1.3c1.1-0.3,2.3-0.5,3.5-0.6c0,0,0.1,0,0.1-0.1c1,0,2,0,3,0c0.1,0.1,0.1,0.1,0.2,0.1
			c1.3,0.1,2.6,0.3,3.8,0.8c0.7,0.2,1.5,0.5,2.2,0.8c0.9,0.4,1.8,0.9,2.7,1.4c2,1.3,3.7,3,5.2,4.9c1.2,1.7,2.1,3.5,2.7,5.5
			c0.4,1.3,0.7,2.6,0.8,4c0,0,0,0.1,0.1,0.1c0,1,0,2,0,2.9c-0.1,0-0.1,0-0.1,0.1c-0.1,0.4-0.1,0.8-0.2,1.3c-0.1,0.6-0.2,1.3-0.4,1.9
			c-0.8,3.2-2.4,6-4.6,8.4c-0.6,0.7-1.3,1.3-2,1.9c-2.5,2-5.4,3.3-8.6,4c-0.1,0-0.1,0-0.2,0c0.2,0,0.2-0.1,0.2-0.3c0-4.3,0-8.7,0-13
			c0-0.3,0-0.3,0.2-0.3c1.3,0,2.5,0,3.8,0c0.2,0,0.2,0,0.2-0.2c0.1-0.5,0.1-0.9,0.2-1.4c0.2-1.3,0.4-2.5,0.6-3.8c-0.1,0-0.2,0-0.2,0
			c-1.5,0-3.1,0-4.6,0c-0.2,0-0.2,0-0.2-0.2c0-1.2,0-2.3,0-3.5c0-0.3,0-0.5,0.1-0.8c0.1-0.9,0.6-1.5,1.5-1.8
			c0.4-0.1,0.9-0.2,1.3-0.2c0.8,0,1.5,0,2.3,0c0.1,0,0.2,0,0.2-0.2c0-1.5,0-3,0-4.5c0-0.2-0.1-0.2-0.2-0.2c-0.6-0.1-1.2-0.1-1.8-0.2
			c-1.1-0.1-2.3-0.2-3.5-0.1c-1,0.1-2,0.4-2.9,0.9c-0.9,0.5-1.6,1.1-2.1,1.9C22.4,17.6,22,19,22,20.5c0,1.5,0,3,0,4.4
			c0,0.2-0.1,0.2-0.2,0.2c-1.5,0-2.9,0-4.4,0c-0.2,0-0.2,0-0.2,0.2c0,1.6,0,3.3,0,4.9c0,0.2,0,0.2,0.2,0.2c1.4,0,2.9,0,4.3,0
			c0.2,0,0.2,0,0.2,0.2c0,4.3,0,8.6,0,13c0,0.1,0,0.2,0,0.3C21.9,44,21.8,44,21.7,44c-1.7-0.3-3.3-0.8-4.9-1.6
			c-4.2-2-7.3-5.2-9.3-9.4c-0.9-2-1.5-4.1-1.6-6.3C6,26.7,6,26.6,5.9,26.6z"/>
	</g>
</g>
</svg>
