<?xml version="1.0" encoding="utf-8"?>
<!-- Generator: Adobe Illustrator 19.1.0, SVG Export Plug-In . SVG Version: 6.00 Build 0)  -->
<svg version="1.1" id="Layer_1" xmlns="http://www.w3.org/2000/svg" xmlns:xlink="http://www.w3.org/1999/xlink" x="0px" y="0px"
	 viewBox="0 0 50 50" style="enable-background:new 0 0 50 50;" xml:space="preserve">
<style type="text/css">
	.st0{fill:#F9F4EC;}
</style>
<g>
	<g>
		<path class="st0" d="M25,44c-3.4-0.1-6.8-0.1-10.2-0.5c-4.9-0.6-7.3-2.5-8-7.3c-1.1-7.3-1.1-14.8,0-22.1c0.7-4.8,2.6-6.7,7.4-7.3
			c7.2-1,14.5-1,21.7,0c4.8,0.7,6.8,2.6,7.4,7.5c1,7.2,1,14.5,0,21.7c-0.7,5-3.1,7-8.2,7.6C31.7,43.9,28.3,43.9,25,44z M25,40.2
			c3.1-0.1,6.3,0.1,9.4-0.2c3.6-0.3,5.3-2,5.5-5.6c0.4-6.2,0.4-12.4,0-18.7c-0.2-3.6-1.9-5.3-5.6-5.6c-6.2-0.4-12.4-0.4-18.7,0
			c-3.7,0.2-5.4,1.9-5.6,5.7c-0.4,6.2-0.4,12.4,0,18.7c0.2,3.5,2,5.2,5.5,5.5C18.7,40.3,21.9,40.2,25,40.2z"/>
		<path class="st0" d="M25,15.6c5.2,0,9.5,4.2,9.5,9.4c0,5.2-4.3,9.5-9.5,9.5c-5.2,0-9.3-4.2-9.4-9.4C15.5,19.9,19.7,15.6,25,15.6z
			 M25,30.8c3.1,0,5.8-2.6,5.8-5.7c0-3-2.6-5.6-5.6-5.7c-3.1-0.1-5.8,2.5-5.8,5.6C19.2,28.1,21.9,30.7,25,30.8z"/>
		<path class="st0" d="M36.3,15.6c0,1-0.9,1.8-1.9,1.8c-1.1,0-1.8-0.8-1.8-1.9c0-1.1,0.8-1.9,1.9-1.8C35.5,13.7,36.4,14.6,36.3,15.6
			z"/>
	</g>
</g>
</svg>
