<?xml version="1.0" encoding="utf-8"?>
<!-- Generator: Adobe Illustrator 19.1.0, SVG Export Plug-In . SVG Version: 6.00 Build 0)  -->
<svg version="1.1" id="Layer_1" xmlns="http://www.w3.org/2000/svg" xmlns:xlink="http://www.w3.org/1999/xlink" x="0px" y="0px"
	 viewBox="0 0 50 50" style="enable-background:new 0 0 50 50;" xml:space="preserve">
<style type="text/css">
	.st0{fill:#F9F4EC;}
</style>
<path class="st0" d="M22,26.9c-0.9-0.2-1.7-0.3-2.6-0.2c-2.7,0.4-4.7,2.7-4.8,5.5c0,2.7,1.9,5.1,4.6,5.6c3.5,0.6,6.7-2,6.7-5.6
	c0-5.2,0-10.4,0-15.6c0-3.4,0-6.8,0-10.1c0-0.1,0-0.3,0-0.4C28,6,30,6,32.1,6c0.1,2.6,1,4.9,2.9,6.7c1.9,1.8,4.1,2.7,6.7,2.8
	c0,2,0,4.1,0,6.2c-3.5,0-6.7-1.1-9.6-3.2c0,0.2,0,0.3,0,0.5c0,4.4,0,8.7,0,13.1c0.1,6.1-4.4,10.9-9.9,11.8C15.5,45,9,40.1,8.4,33.3
	c-0.6-6.1,3.8-11.8,9.9-12.7c1.2-0.2,2.3-0.2,3.5-0.1c0.2,0,0.3,0.1,0.3,0.3c0,2,0,3.9,0,5.9C22,26.8,22,26.8,22,26.9z"/>
</svg>
