<?xml version="1.0" encoding="utf-8"?>
<!-- Generator: Adobe Illustrator 19.1.0, SVG Export Plug-In . SVG Version: 6.00 Build 0)  -->
<svg version="1.1" id="Layer_1" xmlns="http://www.w3.org/2000/svg" xmlns:xlink="http://www.w3.org/1999/xlink" x="0px" y="0px"
	 viewBox="0 0 50 50" style="enable-background:new 0 0 50 50;" xml:space="preserve">
<style type="text/css">
	.st0{fill:#F9F4EC;}
</style>
<g>
	<g>
		<path class="st0" d="M22.4,29.3c-0.3,0.3-0.6,0.7-0.9,1c-1.4,1.6-2.7,3.1-4.1,4.7c-1.6,1.8-3.2,3.7-4.8,5.5c-1,1.2-2,2.3-3,3.5
			c0,0-0.1,0.1-0.2,0.1c-0.9,0-1.8,0-2.7,0c-0.1,0-0.3,0-0.5,0c4.9-5.6,9.7-11.3,14.5-16.9C16.1,20.1,11.3,13,6.4,6
			c0.1,0,0.1,0,0.2,0c3.6,0,7.2,0,10.7,0c0.1,0,0.2,0,0.2,0.1c3.1,4.5,6.2,9.1,9.3,13.6c0,0.1,0.1,0.1,0.1,0.2
			c0.1-0.1,0.2-0.2,0.2-0.2c0.9-1,1.8-2.1,2.7-3.1c1.5-1.8,3.1-3.6,4.6-5.3c1.5-1.7,2.9-3.4,4.4-5.1C39.1,6,39.2,6,39.4,6
			c0.9,0,1.8,0,2.7,0c0.1,0,0.1,0,0.2,0c-0.1,0.1-0.2,0.2-0.3,0.4c-2.3,2.7-4.6,5.3-6.8,8c-2,2.3-4,4.6-6,7
			c-0.2,0.2-0.4,0.4-0.6,0.7c-0.1,0.1-0.1,0.2,0,0.3c0.6,1,1.3,1.9,1.9,2.9c4.2,6.1,8.3,12.1,12.5,18.2c0.2,0.2,0.3,0.5,0.5,0.7
			c-0.1,0-0.1,0-0.1,0c-0.9,0-1.8,0-2.7,0c-2.6,0-5.3,0-7.9,0c-0.2,0-0.3-0.1-0.4-0.2c-3.2-4.7-6.4-9.4-9.6-14
			C22.6,29.6,22.5,29.5,22.4,29.3z M10.9,8.4c0,0.1,0.1,0.1,0.1,0.2c4.4,6.4,8.9,12.7,13.3,19.1c3.2,4.6,6.4,9.2,9.6,13.7
			c0.1,0.1,0.2,0.2,0.4,0.2c1.3,0,2.6,0,3.9,0c0.3,0,0.6,0,0.9,0c-0.1-0.1-0.1-0.1-0.1-0.2c-4.5-6.5-9-12.9-13.5-19.4
			c-3.1-4.5-6.3-9-9.4-13.5c-0.1-0.1-0.1-0.2-0.3-0.2c-1.3,0-2.6,0-3.9,0C11.5,8.4,11.2,8.4,10.9,8.4z"/>
	</g>
</g>
</svg>
