<?xml version="1.0" encoding="utf-8"?>
<!-- Generator: Adobe Illustrator 19.1.0, SVG Export Plug-In . SVG Version: 6.00 Build 0)  -->
<svg version="1.1" id="Layer_1" xmlns="http://www.w3.org/2000/svg" xmlns:xlink="http://www.w3.org/1999/xlink" x="0px" y="0px"
	 viewBox="0 0 765.2 138.6" style="enable-background:new 0 0 765.2 138.6;" xml:space="preserve">
<style type="text/css">
	.st0{fill:#FFFFFF;}
</style>
<g>
	<g>
		<path class="st0" d="M71.4,133H51.9l-4.2-28.7H26.6L22.5,133H3.3L25.2,6.6h24.4L71.4,133z M36.9,33.7l-7.8,53.3h16.1l-7.8-53.3
			H36.9z"/>
		<path class="st0" d="M152.7,133l-15.2-53.5h-8.9V133h-19.1V6.6h27.6c10.4,0,18.2,2.7,23.7,8.2c5.4,5.5,8.1,13.4,8.1,23.8v9
			c0,13.4-4.5,22.6-13.5,27.8L173,133H152.7z M128.7,24.3v37.6h7.8c4.6,0,7.9-1.3,10.1-3.8c2.2-2.5,3.3-6.4,3.3-11.7v-6.5
			c0-5.3-1.1-9.2-3.3-11.7c-2.2-2.5-5.5-3.8-10.1-3.8H128.7z"/>
		<path class="st0" d="M260.5,12.8c5.2,5.4,7.9,12.8,7.9,22.3v11.4l-18.4,0.9V37.1c0-9.8-3.6-14.6-10.8-14.6c-3.5,0-6.2,1.1-8,3.3
			c-1.9,2.2-2.8,5.4-2.8,9.6v69c0,4.2,0.9,7.4,2.8,9.6c1.9,2.2,4.5,3.3,8,3.3c7.2,0,10.8-4.9,10.8-14.6V88.4l18.4,0.9v15.2
			c0,9.5-2.6,17-7.9,22.3c-5.2,5.4-12.6,8-21.9,8c-9.3,0-16.5-2.6-21.7-7.9c-5.2-5.3-7.8-12.8-7.8-22.4V35.1
			c0-9.6,2.6-17.1,7.8-22.4c5.2-5.3,12.4-7.9,21.7-7.9C247.9,4.8,255.2,7.4,260.5,12.8z"/>
		<path class="st0" d="M369.9,133h-19.5l-4.2-28.7h-21.1l-4.2,28.7h-19.1L323.6,6.6H348L369.9,133z M335.4,33.7l-7.8,53.3h16.1
			l-7.8-53.3H335.4z"/>
		<path class="st0" d="M470.3,133h-18.8l-25.1-83.8H426V133H408V6.6h21.3l22.6,75.3h0.4V6.6h18.1V133z"/>
		<path class="st0" d="M565.3,12.7c5.3,5.3,7.9,12.8,7.9,22.4v8.7l-18.4,0.9v-7.6c0-9.8-3.7-14.6-11.2-14.6c-3.7,0-6.5,1.1-8.4,3.3
			c-1.9,2.2-2.8,5.4-2.8,9.6v69c0,8.6,3.7,12.8,11,12.8c3.7,0,6.5-1.2,8.3-3.5c1.8-2.3,2.7-6.1,2.7-11.1V80.8h-10.8V63.1h29.6v41.4
			c0,9.6-2.7,17.1-7.9,22.4c-5.3,5.3-12.7,7.9-22.2,7.9c-9.5,0-16.9-2.6-22-7.9c-5.2-5.3-7.8-12.8-7.8-22.4V35.1
			c0-9.6,2.6-17.1,7.8-22.4c5.2-5.3,12.5-7.9,22-7.9C552.6,4.8,560,7.4,565.3,12.7z"/>
		<path class="st0" d="M669.6,24.3h-34.7V60h28v17.7h-28v37.6h34.7V133h-53.8V6.6h53.8V24.3z"/>
		<path class="st0" d="M729.4,114.9h32V133h-51.1V6.6h19.1V114.9z"/>
	</g>
</g>
</svg>
