<?xml version="1.0" encoding="utf-8"?>
<!-- Generator: Adobe Illustrator 19.1.0, SVG Export Plug-In . SVG Version: 6.00 Build 0)  -->
<svg version="1.1" id="Layer_1" xmlns="http://www.w3.org/2000/svg" xmlns:xlink="http://www.w3.org/1999/xlink" x="0px" y="0px"
	 viewBox="-96 186.1 765.2 163.9" style="enable-background:new -96 186.1 765.2 163.9;" xml:space="preserve">
<style type="text/css">
	.st0{fill:#FFFFFF;}
</style>
<g>
	<g>
		<path class="st0" d="M-24.6,344.4h-19.5l-4.2-28.7h-21.1l-4.1,28.7h-19.2L-70.8,218h24.4L-24.6,344.4z M-59.1,245.1l-7.8,53.3
			h16.1l-7.8-53.3H-59.1z"/>
		<path class="st0" d="M56.7,344.4l-15.2-53.5h-8.9v53.5H13.5V218h27.6c10.4,0,18.2,2.7,23.7,8.2c5.4,5.5,8.1,13.4,8.1,23.8v9
			c0,13.4-4.5,22.6-13.5,27.8L77,344.4H56.7z M32.7,235.7v37.6h7.8c4.6,0,7.9-1.3,10.1-3.8c2.2-2.5,3.3-6.4,3.3-11.7v-6.5
			c0-5.3-1.1-9.2-3.3-11.7s-5.5-3.8-10.1-3.8h-7.8V235.7z"/>
		<path class="st0" d="M164.5,224.2c5.2,5.4,7.9,12.8,7.9,22.3v11.4l-18.4,0.9v-10.3c0-9.8-3.6-14.6-10.8-14.6c-3.5,0-6.2,1.1-8,3.3
			c-1.9,2.2-2.8,5.4-2.8,9.6v69c0,4.2,0.9,7.4,2.8,9.6c1.9,2.2,4.5,3.3,8,3.3c7.2,0,10.8-4.9,10.8-14.6v-14.3l18.4,0.9v15.2
			c0,9.5-2.6,17-7.9,22.3c-5.2,5.4-12.6,8-21.9,8c-9.3,0-16.5-2.6-21.7-7.9c-5.2-5.3-7.8-12.8-7.8-22.4v-69.4
			c0-9.6,2.6-17.1,7.8-22.4c5.2-5.3,12.4-7.9,21.7-7.9C151.9,216.2,159.2,218.8,164.5,224.2z"/>
		<path class="st0" d="M374.3,344.4h-18.8l-25.1-83.8H330v83.8h-18V218h21.3l22.6,75.3h0.4V218h18.1v126.4H374.3z"/>
		<path class="st0" d="M469.3,224.1c5.3,5.3,7.9,12.8,7.9,22.4v8.7l-18.4,0.9v-7.6c0-9.8-3.7-14.6-11.2-14.6c-3.7,0-6.5,1.1-8.4,3.3
			s-2.8,5.4-2.8,9.6v69c0,8.6,3.7,12.8,11,12.8c3.7,0,6.5-1.2,8.3-3.5c1.8-2.3,2.7-6.1,2.7-11.1v-21.8h-10.8v-17.7h29.6v41.4
			c0,9.6-2.7,17.1-7.9,22.4c-5.3,5.3-12.7,7.9-22.2,7.9s-16.9-2.6-22-7.9c-5.2-5.3-7.8-12.8-7.8-22.4v-69.4c0-9.6,2.6-17.1,7.8-22.4
			c5.2-5.3,12.5-7.9,22-7.9C456.6,216.2,464,218.8,469.3,224.1z"/>
		<path class="st0" d="M573.6,235.7h-34.7v35.7h28v17.7h-28v37.6h34.7v17.7h-53.8V218h53.8V235.7z"/>
		<path class="st0" d="M633.4,326.3h32v18.1h-51.1V218h19.1V326.3z"/>
		<g>
			<path class="st0" d="M273.9,344.4h-19.5l-4.2-28.7h-21.1l-4.2,28.7h-19.1L227.7,218H252L273.9,344.4z M244.8,210.7h-14.1
				l10.5-19.9h19.3L244.8,210.7z M239.4,245.1l-7.8,53.3h16.1l-7.8-53.3H239.4z"/>
		</g>
	</g>
</g>
</svg>
