<?xml version="1.0" encoding="utf-8"?>
<!-- Generator: Adobe Illustrator 19.1.0, SVG Export Plug-In . SVG Version: 6.00 Build 0)  -->
<svg version="1.1" id="Layer_1" xmlns="http://www.w3.org/2000/svg" xmlns:xlink="http://www.w3.org/1999/xlink" x="0px" y="0px"
	 viewBox="0 0 35 35" style="enable-background:new 0 0 35 35;" xml:space="preserve">
<style type="text/css">
	.st0{fill:#F9F4EC;}
</style>
<path class="st0" d="M26,24.9c0.8-0.8,0.8-2.2,0-3c-1.3-1.3-3.2-3.2-4.5-4.5l1.7-1.7c0.4-0.4,2.1-2.1,2.5-2.5c0.8-0.8,0.8-2.2,0-3
	L16,0.5l-0.2,0.2c0.8,0.6,0.8,1.8,0.1,2.5L9,10.1c-0.8,0.8-0.8,2.2,0,3c1.3,1.3,3.2,3.2,4.5,4.5l-1.7,1.7c-0.4,0.4-2.1,2.1-2.5,2.5
	c-0.8,0.8-0.8,2.2,0,3l9.8,9.7l0.2-0.2c-0.8-0.6-0.8-1.8-0.1-2.5L26,24.9z M17,10L17,10l4-4c0,0,0.5,0.5,0.9,1c0.6,0.6,0.6,1.5,0,2
	c-0.9,0.9-7,7.2-8.1,8.2c-0.1-0.1-0.6-0.6-1-1.1c-0.5-0.5-0.5-1.3,0-1.7C14.1,13,16.7,10.4,17,10 M18,25L18,25l-4,4
	c0,0-0.5-0.5-0.9-1c-0.6-0.6-0.6-1.5,0-2c1.3-1.4,6.7-6.8,6.7-6.8c0.5-0.5,1.1-1.1,1.5-1.4c0,0,0.5,0.5,1,1c0.5,0.5,0.5,1.3,0,1.7
	C20.9,22,18.4,24.6,18,25"/>
</svg>
