<?xml version="1.0" encoding="utf-8"?>
<!-- Generator: Adobe Illustrator 19.1.0, SVG Export Plug-In . SVG Version: 6.00 Build 0)  -->
<svg version="1.1" id="Layer_1" xmlns="http://www.w3.org/2000/svg" xmlns:xlink="http://www.w3.org/1999/xlink" x="0px" y="0px"
	 viewBox="-462 263 35 35" style="enable-background:new -462 263 35 35;" xml:space="preserve">
<style type="text/css">
	.st0{fill:#FF1E00;}
	.st1{fill:#FFFFFF;}
</style>
<g>
	<rect x="-453.6" y="263.5" class="st0" width="18.2" height="34"/>
	<g>
		<path class="st1" d="M-447.7,291.7L-447.7,291.7l10.3,0v2h-14.2v-2.8l8.5-2.3v0h-8.5v-2h14.2v2.3L-447.7,291.7z"/>
		<path class="st1" d="M-445.6,282.8v-3.1h2v3.1h4.2V279h2v6.1h-14.2V279h2v3.9H-445.6z"/>
		<path class="st1" d="M-445,272.6L-445,272.6l7.6,0.8v3.1l-14.2,1.6v-2.2l11.2-1.2v0l-11.2-1.1v-2.2l11.3-1.1v0l-11.3-1.1v-2
			l14.2,1.6v3L-445,272.6z"/>
	</g>
</g>
</svg>
