<?xml version="1.0" encoding="utf-8"?>
<!-- Generator: Adobe Illustrator 19.1.0, SVG Export Plug-In . SVG Version: 6.00 Build 0)  -->
<svg version="1.1" id="Layer_1" xmlns="http://www.w3.org/2000/svg" xmlns:xlink="http://www.w3.org/1999/xlink" x="0px" y="0px"
	 viewBox="0 0 726.2 86.1" style="enable-background:new 0 0 726.2 86.1;" xml:space="preserve">
<style type="text/css">
	.st0{fill:#F9F4EC;}
</style>
<g>
	<path class="st0" d="M44.4,61.9c2.1-2.1,2.1-5.5,0-7.6c-3.2-3.2-8-8-11.3-11.3l4.4-4.4c1.1-1.1,5.4-5.3,6.4-6.4
		c2.1-2.1,2.1-5.5,0-7.6L19.1,0l-0.6,0.6c1.9,1.6,2.1,4.6,0.3,6.3L1.6,24.2c-2.1,2.1-2.1,5.5,0,7.6c3.2,3.2,8,8,11.3,11.3l-4.4,4.4
		c-1.1,1.1-5.4,5.3-6.4,6.4C0,56,0,59.4,2.1,61.5l24.7,24.6l0.6-0.6c-1.9-1.6-2.1-4.6-0.3-6.3L44.4,61.9z M21.8,24L21.8,24
		l10.2-10.1c0,0,1.2,1.2,2.4,2.5c1.4,1.4,1.4,3.7,0,5.1c-2.2,2.2-17.9,18.2-20.5,20.9c-0.3-0.3-1.5-1.5-2.6-2.7
		c-1.2-1.2-1.3-3.2-0.1-4.4C14.5,31.7,20.8,25.1,21.8,24 M24.2,62.1L24.2,62.1L14.1,72.2c0,0-1.2-1.2-2.4-2.5
		c-1.4-1.4-1.4-3.7,0-5.1c3.3-3.4,16.9-17.2,17-17.2c1.2-1.2,2.8-2.7,3.7-3.6c0,0,1.4,1.4,2.6,2.6c1.2,1.2,1.2,3.2,0,4.4
		C31.6,54.4,25.1,61.1,24.2,62.1"/>
	<g>
		<g>
			<path class="st0" d="M97.8,59.3h9.2v5.2H92.3V28.1h5.5V59.3z"/>
			<path class="st0" d="M150.3,64.5h-5.6l-1.2-8.3h-6.1l-1.2,8.3h-5.5l6.3-36.4h7L150.3,64.5z M140.3,35.9l-2.2,15.3h4.6l-2.2-15.3
				H140.3z"/>
			<path class="st0" d="M222.1,29.9c1.5,1.6,2.3,3.8,2.3,6.6v2.1c0,3.5-1.3,5.7-4,6.8v0.1c2.8,1.2,4.3,3.8,4.3,7.8v2.8
				c0,2.8-0.8,5-2.4,6.6c-1.6,1.6-3.8,2.4-6.7,2.4s-5.1-0.8-6.7-2.4c-1.6-1.6-2.4-3.8-2.4-6.6v-2.8c0-4,1.4-6.6,4.3-7.8v-0.1
				c-2.6-1.1-4-3.3-4-6.8v-2.1c0-2.8,0.8-5,2.3-6.6c1.5-1.6,3.7-2.4,6.5-2.4S220.5,28.4,222.1,29.9z M212.9,49.3
				c-0.6,0.7-1,1.8-1,3.1v3.3c0,1.4,0.3,2.4,1,3.1c0.6,0.7,1.5,1.1,2.6,1.1s2-0.4,2.6-1.1c0.6-0.7,1-1.8,1-3.1v-3.3
				c0-1.4-0.3-2.4-1-3.1c-0.6-0.7-1.5-1.1-2.6-1.1S213.6,48.6,212.9,49.3z M213.2,33.7c-0.6,0.7-0.9,1.6-0.9,2.9v2.7
				c0,1.2,0.3,2.2,0.9,2.9s1.4,1,2.4,1c1,0,1.8-0.3,2.4-1s0.9-1.6,0.9-2.9v-2.7c0-1.2-0.3-2.2-0.9-2.9c-0.6-0.7-1.4-1-2.4-1
				C214.5,32.7,213.7,33,213.2,33.7z"/>
			<path class="st0" d="M262.7,64.5h-7.1l-6.1-36.4h5.6l4.1,27.8h0.1l4.1-27.8h5.5L262.7,64.5z"/>
			<path class="st0" d="M311.3,64.5h-5.6l-1.2-8.3h-6.1l-1.2,8.3h-5.5l6.3-36.4h7L311.3,64.5z M301.3,35.9l-2.2,15.3h4.6l-2.2-15.3
				H301.3z"/>
			<path class="st0" d="M392.2,64.5h-5.5V39.2h-0.1L382,59.3h-3.3l-4.6-20.1H374v25.3h-5.2V28.1h7.2l4.3,19.6h0.1l4.3-19.6h7.4V64.5
				z"/>
			<path class="st0" d="M437.8,64.5h-5.6l-1.2-8.3h-6.1l-1.2,8.3h-5.5l6.3-36.4h7L437.8,64.5z M427.9,35.9l-2.2,15.3h4.6l-2.2-15.3
				H427.9z"/>
			<path class="st0" d="M476.4,64.5L472,49.1h-2.5v15.4h-5.5V28.1h8c3,0,5.3,0.8,6.8,2.4c1.6,1.6,2.3,3.9,2.3,6.8v2.6
				c0,3.9-1.3,6.5-3.9,8l5,16.6H476.4z M469.4,33.2V44h2.2c1.3,0,2.3-0.4,2.9-1.1c0.6-0.7,0.9-1.9,0.9-3.4v-1.9
				c0-1.5-0.3-2.7-0.9-3.4s-1.6-1.1-2.9-1.1H469.4z"/>
			<path class="st0" d="M525.9,64.5h-5.6l-1.2-8.3H513l-1.2,8.3h-5.5l6.3-36.4h7L525.9,64.5z M516,35.9l-2.2,15.3h4.6l-2.2-15.3H516
				z"/>
			<path class="st0" d="M562,64.5h-7.1l-6.1-36.4h5.6l4.1,27.8h0.1l4.1-27.8h5.5L562,64.5z"/>
			<path class="st0" d="M599.8,64.5h-5.5V28.1h5.5V64.5z"/>
			<path class="st0" d="M633.3,59.3h9.2v5.2h-14.7V28.1h5.5V59.3z"/>
			<path class="st0" d="M673.7,59.3h9.2v5.2h-14.7V28.1h5.5V59.3z"/>
			<path class="st0" d="M726.2,64.5h-5.6l-1.2-8.3h-6.1l-1.2,8.3h-5.5l6.3-36.4h7L726.2,64.5z M716.3,35.9L714,51.2h4.6l-2.2-15.3
				H716.3z"/>
		</g>
	</g>
</g>
</svg>
