<?xml version="1.0" encoding="utf-8"?>
<!-- Generator: Adobe Illustrator 19.1.0, SVG Export Plug-In . SVG Version: 6.00 Build 0)  -->
<svg version="1.1" id="Layer_1" xmlns="http://www.w3.org/2000/svg" xmlns:xlink="http://www.w3.org/1999/xlink" x="0px" y="0px"
	 viewBox="0 0 300 300" style="enable-background:new 0 0 300 300;" xml:space="preserve">
<style type="text/css">
	.st0{fill:#FFFFFF;}
</style>
<g>
	<g>
		<path class="st0" d="M79,153.5v13.2v52.7h0v0.7h0v9.8h3.7c0-5.4,4.4-9.8,9.8-9.8h52.1c10.6,0,19.2-8.6,19.2-19.2v-13.2v-21H194
			c10.6,0,19.2-8.6,19.2-19.2v-13.2v-16.7V85.1h-0.1V74.4h-3.7v1c0,5.4-4.4,9.8-9.8,9.8h-49.2c-10.6,0-19.2,8.6-19.2,19.2v13.2v16.7
			H98.2C87.6,134.3,79,142.9,79,153.5 M190.3,134.3h-22.4v0H135c1.2-9.4,9.3-16.7,19.1-16.7h55.3C208.2,127,200.1,134.3,190.3,134.3
			 M101.9,166.6h24.8v0h33.5v1.7c0,10.6-8.6,19.2-19.2,19.2H82.7v-1.8C82.7,175.3,91.3,166.6,101.9,166.6"/>
	</g>
	<g>
		<path class="st0" d="M37.3,197.8l-2.6-6.6l3.7-1.5l4.2,10.5l-26,10.5l-1.6-3.9L37.3,197.8z"/>
	</g>
	<g>
		<path class="st0" d="M32.3,158.2l0.5,4.3l-6.2,1.6l0.5,4.7l6.4,0.2l0.5,4.2l-28.4-1.6L5,166.3L32.3,158.2z M11.3,168.4l11.9,0.4
			l-0.4-3.5l-11.5,3.1L11.3,168.4z"/>
	</g>
	<g>
		<path class="st0" d="M16.7,96.8c1.6-0.7,3.3-0.6,5.4,0.1l1.5,0.6c2.5,0.9,3.8,2.5,3.8,4.7l0.1,0c1.6-1.7,3.9-2.1,6.8-1l2,0.7
			c2,0.8,3.4,1.9,4.1,3.5c0.7,1.6,0.7,3.4-0.1,5.5c-0.8,2.1-1.9,3.4-3.5,4.2c-1.6,0.7-3.4,0.7-5.4,0l-2-0.7
			c-2.9-1.1-4.4-2.8-4.5-5.2l-0.1,0c-1.5,1.6-3.5,1.9-6,1l-1.5-0.6c-2-0.8-3.4-1.9-4.1-3.5c-0.7-1.5-0.7-3.3,0-5.3
			C14,98.8,15.1,97.5,16.7,96.8z M17,104.2c0.3,0.6,0.9,1.1,1.8,1.4l1.9,0.7c0.9,0.3,1.7,0.4,2.3,0.2c0.6-0.2,1.1-0.7,1.4-1.5
			c0.3-0.8,0.3-1.4-0.1-2c-0.3-0.6-0.9-1.1-1.8-1.4l-1.9-0.7c-0.9-0.3-1.7-0.4-2.3-0.2c-0.6,0.2-1.1,0.7-1.4,1.5
			C16.6,103,16.6,103.6,17,104.2z M28.2,108.6c0.4,0.7,1,1.2,2,1.5l2.4,0.9c1,0.4,1.8,0.4,2.5,0.2c0.7-0.3,1.2-0.8,1.5-1.6
			c0.3-0.8,0.3-1.5-0.1-2.2c-0.4-0.7-1-1.2-2-1.5l-2.4-0.9c-1-0.4-1.8-0.4-2.5-0.2c-0.7,0.3-1.2,0.8-1.5,1.6
			C27.8,107.2,27.8,108,28.2,108.6z"/>
	</g>
	<g>
		<path class="st0" d="M56.8,80.4l-3.3,4.4L28.2,72l2.6-3.5l19.1,10.1l0-0.1L34.5,63.4l2.5-3.4L56.8,80.4z"/>
	</g>
	<g>
		<path class="st0" d="M82.8,55.3L79.4,58l-4.7-4.4l-3.7,2.9l3.2,5.6L71,64.7l-13.6-25l4.2-3.4L82.8,55.3z M63.1,42.8l6,10.3
			l2.8-2.2L63.1,42.8L63.1,42.8z"/>
	</g>
	<g>
		<path class="st0" d="M138.8,34.8l-4.2,0.7l-3.3-19.2l-0.1,0l-0.9,15.8l-2.5,0.4L121.8,18l-0.1,0l3.3,19.2l-3.9,0.7l-4.7-27.6
			l5.5-0.9l5.8,14.3l0.1,0l0.7-15.4l5.6-1L138.8,34.8z"/>
	</g>
	<g>
		<path class="st0" d="M172.5,36.6l-4.3-0.6l-0.1-6.4l-4.7-0.6l-1.7,6.2l-4.2-0.5l8.4-27.2l5.4,0.7L172.5,36.6z M167.7,13.7
			l-3.2,11.5l3.5,0.5l-0.2-11.9L167.7,13.7z"/>
	</g>
	<g>
		<path class="st0" d="M199.4,45.5l1.6-12.2l-1.8-0.8l-4.7,10.9l-3.9-1.7L201.6,16l5.6,2.4c2.1,0.9,3.5,2.2,4.1,3.7
			c0.6,1.6,0.5,3.4-0.4,5.6l-0.8,1.8c-1.2,2.7-2.9,4.2-5.2,4.5l-1.5,13.3L199.4,45.5z M204,21.2l-3.3,7.7l1.6,0.7
			c0.9,0.4,1.7,0.4,2.4,0.1c0.7-0.3,1.2-1,1.7-2.1l0.6-1.3c0.5-1.1,0.6-2,0.4-2.7c-0.2-0.7-0.8-1.3-1.7-1.7L204,21.2z"/>
	</g>
	<g>
		<path class="st0" d="M229.7,65.6l-3.4-2.7l3.3-5.5l-3.6-3l-4.7,4.4l-3.3-2.7l21.4-18.7l4.2,3.4L229.7,65.6z M237.6,43.7l-8.8,8.1
			l2.8,2.2L237.6,43.7L237.6,43.7z"/>
	</g>
	<g>
		<path class="st0" d="M246.9,85.9l-3.2-4.5l20-20.2l2.5,3.5l-15.5,15.1l0,0.1l19.2-9.9l2.5,3.4L246.9,85.9z"/>
	</g>
	<g>
		<path class="st0" d="M259.8,110.7l-1.6-3.9l26.1-10.4l1.6,3.9L259.8,110.7z"/>
	</g>
	<g>
		<path class="st0" d="M270,134.1l1,7l-4,0.6l-1.6-11.2l27.8-4l0.6,4.2L270,134.1z"/>
	</g>
	<g>
		<path class="st0" d="M270.6,165l-0.8,7.1l-4-0.4l1.2-11.3l27.9,3.1l-0.5,4.2L270.6,165z"/>
	</g>
	<g>
		<path class="st0" d="M256.4,202.2l1.6-4l6.3,1.5l1.7-4.4l-5.6-3.2l1.6-4l24.3,14.8l-2,5L256.4,202.2z M279.7,203.2l-10.4-5.9
			l-1.3,3.3l11.6,2.7L279.7,203.2z"/>
	</g>
	<g>
		<path class="st0" d="M56.1,257.3l4.2-8.5l-8.3,4.7l-1.5-1.4l5.2-11.2l1.5,1.5l-4.4,8.9l8.6-5l1.4,1.3l-4.4,8.9l8.6-5l1.5,1.4
			l-10.9,5.8L56.1,257.3z"/>
	</g>
	<g>
		<path class="st0" d="M83.3,269.7c-1.8,2.8-5.4,3.6-8.4,1.8c-3-1.8-3.9-5.5-2.1-8.3c1.8-2.8,5.4-3.6,8.4-1.7
			C84.1,263.3,85.1,266.9,83.3,269.7z M74.5,264.2c-1.2,2-0.6,4.5,1.4,5.8c1.9,1.2,4.5,0.6,5.7-1.3c1.2-2,0.6-4.5-1.3-5.7
			C78.3,261.7,75.7,262.2,74.5,264.2z"/>
	</g>
	<g>
		<path class="st0" d="M101.3,280.6c-0.2,0-0.3-0.1-0.5-0.2l-2.6-1l-1.3,3.3l-1.8-0.7l4.2-10.9l4.4,1.7c2.8,1.1,3.9,3.1,2.9,5.4
			c-0.7,1.7-2,2.7-3.6,2.7l1,4.6l-2.1-0.8L101.3,280.6z M101.4,278.7c1.7,0.7,2.9,0.3,3.5-1.2c0.6-1.4-0.1-2.5-1.8-3.1l-2.6-1
			l-1.7,4.3L101.4,278.7z"/>
	</g>
	<g>
		<path class="st0" d="M124.7,288.9l-0.4,1.7l-6.9-1.5l2.4-11.4l1.9,0.4l-2,9.7L124.7,288.9z"/>
	</g>
	<g>
		<path class="st0" d="M144.5,281.1c3.5,0.1,5.9,2.7,5.8,6.1c-0.1,3.4-2.8,5.7-6.3,5.6l-4.7-0.2l0.5-11.7L144.5,281.1z M141.3,290.9
			l2.9,0.1c2.3,0.1,4.1-1.5,4.2-3.9c0.1-2.4-1.6-4.2-3.9-4.3l-2.8-0.1L141.3,290.9z"/>
	</g>
	<g>
		<path class="st0" d="M181.4,279.2l2.3,9.6l-1.9,0.5l-2.3-9.6l-3.6,0.9l-0.4-1.7l9.1-2.2l0.4,1.7L181.4,279.2z"/>
	</g>
	<g>
		<path class="st0" d="M208.8,273.7c1.3,3.1-0.1,6.5-3.3,7.9c-3.2,1.4-6.7,0.1-8-3c-1.3-3.1,0.1-6.5,3.3-7.9
			C204,269.4,207.5,270.6,208.8,273.7z M199.3,277.8c0.9,2.1,3.4,3,5.5,2.1c2.1-0.9,3.1-3.3,2.2-5.5c-0.9-2.1-3.4-3-5.5-2.1
			C199.4,273.3,198.4,275.7,199.3,277.8z"/>
	</g>
	<g>
		<path class="st0" d="M231.2,261.3c1.7,2.5,1.2,5.1-1.4,6.9c-2.6,1.8-5.3,1.3-7-1.2l-3.9-5.6l1.6-1.1l3.9,5.6
			c1.1,1.6,2.8,1.9,4.4,0.8c1.6-1.1,1.9-2.7,0.8-4.4l-3.9-5.6l1.6-1.1L231.2,261.3z"/>
	</g>
	<g>
		<path class="st0" d="M246.7,249.4c-0.1,0.1-0.2,0.3-0.4,0.4l-2,1.9l2.5,2.5l-1.4,1.4l-8.2-8.4l3.4-3.3c2.1-2.1,4.4-2.3,6.2-0.4
			c1.3,1.3,1.6,2.9,0.9,4.4l4.6,1l-1.6,1.6L246.7,249.4z M245.1,248.6c1.3-1.3,1.5-2.5,0.4-3.7c-1.1-1.1-2.3-0.9-3.6,0.4l-2,1.9
			l3.2,3.3L245.1,248.6z"/>
	</g>
</g>
</svg>
