<?xml version="1.0" encoding="utf-8"?>
<!-- Generator: Adobe Illustrator 19.1.0, SVG Export Plug-In . SVG Version: 6.00 Build 0)  -->
<svg version="1.1" id="Layer_1" xmlns="http://www.w3.org/2000/svg" xmlns:xlink="http://www.w3.org/1999/xlink" x="0px" y="0px"
	 viewBox="0 0 1934.9 873" style="enable-background:new 0 0 1934.9 873;" xml:space="preserve">
<style type="text/css">
	.st0{opacity:0.1;}
	.st1{fill:#FFFFFF;}
</style>
<g class="st0">
	<path class="st1" d="M411.8,145.1H279.6v702h-124v-702H23.4v-117h388.4V145.1z"/>
	<path class="st1" d="M821.9,71.9c35.5,37,53.2,87.5,53.2,151.5v428.2c0,64-17.8,114.5-53.2,151.5c-35.5,37-84.4,55.6-146.8,55.6
		c-62.4,0-111.3-18.5-146.8-55.6c-35.5-37-53.2-87.5-53.2-151.5V223.4c0-64,17.7-114.5,53.2-151.5c35.5-37,84.4-55.6,146.8-55.6
		C737.4,16.4,786.4,34.9,821.9,71.9z M618.3,155c-12.9,16-19.3,39.2-19.3,69.6v425.9c0,30.4,6.4,53.6,19.3,69.6
		c12.9,16,31.8,24,56.8,24c25,0,43.9-8,56.7-24c12.9-16,19.3-39.2,19.3-69.6V224.6c0-30.4-6.4-53.6-19.3-69.6
		c-12.9-16-31.8-24-56.7-24C650.1,131,631.2,139,618.3,155z"/>
	<path class="st1" d="M1372.3,663.3c0,63.2-17,111.5-50.9,145.1c-33.9,33.5-81.3,50.3-142.2,50.3c-59.3,0-105.9-16.8-139.8-50.3
		c-33.9-33.5-50.9-81.9-50.9-145.1V28.1h119.3v631.8c0,54.6,23.4,81.9,70.2,81.9s70.2-27.3,70.2-81.9V28.1h124V663.3z"/>
	<path class="st1" d="M1778.3,847L1680,500.7h-57.3V847h-124v-819h179c67.1,0,118.2,17.8,153.3,53.2c35.1,35.5,52.7,86.8,52.7,153.8
		v58.5c0,86.6-29.3,146.6-87.8,180.2L1909.3,847H1778.3z M1622.7,142.7v243.3h50.3c29.6,0,51.5-8.2,65.5-24.6s21.1-41.7,21.1-76
		v-42.1c0-34.3-7-59.7-21.1-76s-35.9-24.6-65.5-24.6H1622.7z"/>
</g>
</svg>
